<?xml version="1.0" encoding="utf-8" standalone="no"?>
<!DOCTYPE svg PUBLIC "-//W3C//DTD SVG 1.1//EN"
  "http://www.w3.org/Graphics/SVG/1.1/DTD/svg11.dtd">
<svg xmlns:xlink="http://www.w3.org/1999/xlink" width="625.084063pt" height="469.0525pt" viewBox="0 0 625.084063 469.0525" xmlns="http://www.w3.org/2000/svg" version="1.1">
 <metadata>
  <rdf:RDF xmlns:dc="http://purl.org/dc/elements/1.1/" xmlns:cc="http://creativecommons.org/ns#" xmlns:rdf="http://www.w3.org/1999/02/22-rdf-syntax-ns#">
   <cc:Work>
    <dc:type rdf:resource="http://purl.org/dc/dcmitype/StillImage"/>
    <dc:date>2025-10-24T16:21:55.317942</dc:date>
    <dc:format>image/svg+xml</dc:format>
    <dc:creator>
     <cc:Agent>
      <dc:title>Matplotlib v3.5.1, https://matplotlib.org/</dc:title>
     </cc:Agent>
    </dc:creator>
   </cc:Work>
  </rdf:RDF>
 </metadata>
 <defs>
  <style type="text/css">*{stroke-linejoin: round; stroke-linecap: butt}</style>
 </defs>
 <g id="figure_1">
  <g id="patch_1">
   <path d="M 0 469.0525 
L 625.084063 469.0525 
L 625.084063 0 
L 0 0 
L 0 469.0525 
z
" style="fill: none"/>
  </g>
  <g id="axes_1">
   <g id="patch_2">
    <path d="M 59.884062 175.846154 
L 617.884063 175.846154 
L 617.884063 50.4 
L 59.884062 50.4 
z
" style="fill: #ffffff"/>
   </g>
   <g id="matplotlib.axis_1">
    <g id="xtick_1">
     <g id="line2d_1">
      <path d="M 80.123214 175.846154 
L 80.123214 50.4 
" clip-path="url(#p917ded95e4)" style="fill: none; stroke: #b0b0b0; stroke-width: 0.8; stroke-linecap: square"/>
     </g>
     <g id="line2d_2">
      <defs>
       <path id="m881238c8a3" d="M 0 0 
L 0 3.5 
" style="stroke: #000000; stroke-width: 0.8"/>
      </defs>
      <g>
       <use xlink:href="#m881238c8a3" x="80.123214" y="175.846154" style="stroke: #000000; stroke-width: 0.8"/>
      </g>
     </g>
     <g id="text_1">
      <!-- 0 -->
      <g transform="translate(75.118371 195.758341)scale(0.18 -0.18)">
       <defs>
        <path id="Helvetica-30" d="M 1731 4475 
Q 2600 4475 2988 3759 
Q 3288 3206 3288 2244 
Q 3288 1331 3016 734 
Q 2622 -122 1728 -122 
Q 922 -122 528 578 
Q 200 1163 200 2147 
Q 200 2909 397 3456 
Q 766 4475 1731 4475 
z
M 1725 391 
Q 2163 391 2422 778 
Q 2681 1166 2681 2222 
Q 2681 2984 2493 3476 
Q 2306 3969 1766 3969 
Q 1269 3969 1039 3501 
Q 809 3034 809 2125 
Q 809 1441 956 1025 
Q 1181 391 1725 391 
z
" transform="scale(0.015625)"/>
       </defs>
       <use xlink:href="#Helvetica-30"/>
      </g>
     </g>
    </g>
    <g id="xtick_2">
     <g id="line2d_3">
      <path d="M 182.612906 175.846154 
L 182.612906 50.4 
" clip-path="url(#p917ded95e4)" style="fill: none; stroke: #b0b0b0; stroke-width: 0.8; stroke-linecap: square"/>
     </g>
     <g id="line2d_4">
      <g>
       <use xlink:href="#m881238c8a3" x="182.612906" y="175.846154" style="stroke: #000000; stroke-width: 0.8"/>
      </g>
     </g>
     <g id="text_2">
      <!-- 2 -->
      <g transform="translate(177.608062 195.758341)scale(0.18 -0.18)">
       <defs>
        <path id="Helvetica-32" d="M 200 0 
Q 231 578 439 1006 
Q 647 1434 1250 1784 
L 1850 2131 
Q 2253 2366 2416 2531 
Q 2672 2791 2672 3125 
Q 2672 3516 2437 3745 
Q 2203 3975 1813 3975 
Q 1234 3975 1013 3538 
Q 894 3303 881 2888 
L 309 2888 
Q 319 3472 525 3841 
Q 891 4491 1816 4491 
Q 2584 4491 2939 4075 
Q 3294 3659 3294 3150 
Q 3294 2613 2916 2231 
Q 2697 2009 2131 1694 
L 1703 1456 
Q 1397 1288 1222 1134 
Q 909 863 828 531 
L 3272 531 
L 3272 0 
L 200 0 
z
" transform="scale(0.015625)"/>
       </defs>
       <use xlink:href="#Helvetica-32"/>
      </g>
     </g>
    </g>
    <g id="xtick_3">
     <g id="line2d_5">
      <path d="M 285.102597 175.846154 
L 285.102597 50.4 
" clip-path="url(#p917ded95e4)" style="fill: none; stroke: #b0b0b0; stroke-width: 0.8; stroke-linecap: square"/>
     </g>
     <g id="line2d_6">
      <g>
       <use xlink:href="#m881238c8a3" x="285.102597" y="175.846154" style="stroke: #000000; stroke-width: 0.8"/>
      </g>
     </g>
     <g id="text_3">
      <!-- 4 -->
      <g transform="translate(280.097753 195.758341)scale(0.18 -0.18)">
       <defs>
        <path id="Helvetica-34" d="M 2116 1584 
L 2116 3613 
L 681 1584 
L 2116 1584 
z
M 2125 0 
L 2125 1094 
L 163 1094 
L 163 1644 
L 2213 4488 
L 2688 4488 
L 2688 1584 
L 3347 1584 
L 3347 1094 
L 2688 1094 
L 2688 0 
L 2125 0 
z
" transform="scale(0.015625)"/>
       </defs>
       <use xlink:href="#Helvetica-34"/>
      </g>
     </g>
    </g>
    <g id="xtick_4">
     <g id="line2d_7">
      <path d="M 387.592288 175.846154 
L 387.592288 50.4 
" clip-path="url(#p917ded95e4)" style="fill: none; stroke: #b0b0b0; stroke-width: 0.8; stroke-linecap: square"/>
     </g>
     <g id="line2d_8">
      <g>
       <use xlink:href="#m881238c8a3" x="387.592288" y="175.846154" style="stroke: #000000; stroke-width: 0.8"/>
      </g>
     </g>
     <g id="text_4">
      <!-- 6 -->
      <g transform="translate(382.587445 195.758341)scale(0.18 -0.18)">
       <defs>
        <path id="Helvetica-36" d="M 1872 4494 
Q 2622 4494 2917 4105 
Q 3213 3716 3213 3303 
L 2656 3303 
Q 2606 3569 2497 3719 
Q 2294 4000 1881 4000 
Q 1409 4000 1131 3564 
Q 853 3128 822 2316 
Q 1016 2600 1309 2741 
Q 1578 2866 1909 2866 
Q 2472 2866 2890 2506 
Q 3309 2147 3309 1434 
Q 3309 825 2912 354 
Q 2516 -116 1781 -116 
Q 1153 -116 697 361 
Q 241 838 241 1966 
Q 241 2800 444 3381 
Q 834 4494 1872 4494 
z
M 1831 384 
Q 2275 384 2495 682 
Q 2716 981 2716 1388 
Q 2716 1731 2519 2042 
Q 2322 2353 1803 2353 
Q 1441 2353 1167 2112 
Q 894 1872 894 1388 
Q 894 963 1142 673 
Q 1391 384 1831 384 
z
" transform="scale(0.015625)"/>
       </defs>
       <use xlink:href="#Helvetica-36"/>
      </g>
     </g>
    </g>
    <g id="xtick_5">
     <g id="line2d_9">
      <path d="M 490.08198 175.846154 
L 490.08198 50.4 
" clip-path="url(#p917ded95e4)" style="fill: none; stroke: #b0b0b0; stroke-width: 0.8; stroke-linecap: square"/>
     </g>
     <g id="line2d_10">
      <g>
       <use xlink:href="#m881238c8a3" x="490.08198" y="175.846154" style="stroke: #000000; stroke-width: 0.8"/>
      </g>
     </g>
     <g id="text_5">
      <!-- 8 -->
      <g transform="translate(485.077136 195.758341)scale(0.18 -0.18)">
       <defs>
        <path id="Helvetica-38" d="M 1741 2600 
Q 2113 2600 2322 2808 
Q 2531 3016 2531 3303 
Q 2531 3553 2331 3762 
Q 2131 3972 1722 3972 
Q 1316 3972 1134 3762 
Q 953 3553 953 3272 
Q 953 2956 1187 2778 
Q 1422 2600 1741 2600 
z
M 1775 384 
Q 2166 384 2423 595 
Q 2681 806 2681 1225 
Q 2681 1659 2415 1884 
Q 2150 2109 1734 2109 
Q 1331 2109 1076 1879 
Q 822 1650 822 1244 
Q 822 894 1055 639 
Q 1288 384 1775 384 
z
M 975 2384 
Q 741 2484 609 2619 
Q 363 2869 363 3269 
Q 363 3769 725 4128 
Q 1088 4488 1753 4488 
Q 2397 4488 2762 4148 
Q 3128 3809 3128 3356 
Q 3128 2938 2916 2678 
Q 2797 2531 2547 2391 
Q 2825 2263 2984 2097 
Q 3281 1784 3281 1284 
Q 3281 694 2884 283 
Q 2488 -128 1763 -128 
Q 1109 -128 657 226 
Q 206 581 206 1256 
Q 206 1653 400 1942 
Q 594 2231 975 2384 
z
" transform="scale(0.015625)"/>
       </defs>
       <use xlink:href="#Helvetica-38"/>
      </g>
     </g>
    </g>
    <g id="xtick_6">
     <g id="line2d_11">
      <path d="M 592.571671 175.846154 
L 592.571671 50.4 
" clip-path="url(#p917ded95e4)" style="fill: none; stroke: #b0b0b0; stroke-width: 0.8; stroke-linecap: square"/>
     </g>
     <g id="line2d_12">
      <g>
       <use xlink:href="#m881238c8a3" x="592.571671" y="175.846154" style="stroke: #000000; stroke-width: 0.8"/>
      </g>
     </g>
     <g id="text_6">
      <!-- 10 -->
      <g transform="translate(582.561983 195.758341)scale(0.18 -0.18)">
       <defs>
        <path id="Helvetica-31" d="M 613 3169 
L 613 3600 
Q 1222 3659 1462 3798 
Q 1703 3938 1822 4456 
L 2266 4456 
L 2266 0 
L 1666 0 
L 1666 3169 
L 613 3169 
z
" transform="scale(0.015625)"/>
       </defs>
       <use xlink:href="#Helvetica-31"/>
       <use xlink:href="#Helvetica-30" x="55.615234"/>
      </g>
     </g>
    </g>
    <g id="text_7">
     <!-- $\sigma^2$ -->
     <g transform="translate(328.444062 216.498341)scale(0.18 -0.18)">
      <defs>
       <path id="DejaVuSans-Oblique-3c3" d="M 2219 3044 
Q 1744 3044 1422 2700 
Q 1081 2341 969 1747 
Q 844 1119 1044 756 
Q 1241 397 1706 397 
Q 2166 397 2503 759 
Q 2844 1122 2966 1747 
Q 3075 2319 2881 2700 
Q 2700 3044 2219 3044 
z
M 2309 3503 
L 4219 3500 
L 4106 2925 
L 3463 2925 
Q 3706 2438 3575 1747 
Q 3406 888 2884 400 
Q 2359 -91 1609 -91 
Q 856 -91 525 400 
Q 194 888 363 1747 
Q 528 2609 1050 3097 
Q 1484 3503 2309 3503 
z
" transform="scale(0.015625)"/>
       <path id="DejaVuSans-32" d="M 1228 531 
L 3431 531 
L 3431 0 
L 469 0 
L 469 531 
Q 828 903 1448 1529 
Q 2069 2156 2228 2338 
Q 2531 2678 2651 2914 
Q 2772 3150 2772 3378 
Q 2772 3750 2511 3984 
Q 2250 4219 1831 4219 
Q 1534 4219 1204 4116 
Q 875 4013 500 3803 
L 500 4441 
Q 881 4594 1212 4672 
Q 1544 4750 1819 4750 
Q 2544 4750 2975 4387 
Q 3406 4025 3406 3419 
Q 3406 3131 3298 2873 
Q 3191 2616 2906 2266 
Q 2828 2175 2409 1742 
Q 1991 1309 1228 531 
z
" transform="scale(0.015625)"/>
      </defs>
      <use xlink:href="#DejaVuSans-Oblique-3c3" transform="translate(0 0.765625)"/>
      <use xlink:href="#DejaVuSans-32" transform="translate(67.851615 39.046875)scale(0.7)"/>
     </g>
    </g>
   </g>
   <g id="matplotlib.axis_2">
    <g id="ytick_1">
     <g id="line2d_13">
      <path d="M 59.884062 171.559166 
L 617.884063 171.559166 
" clip-path="url(#p917ded95e4)" style="fill: none; stroke: #b0b0b0; stroke-width: 0.8; stroke-linecap: square"/>
     </g>
     <g id="line2d_14">
      <defs>
       <path id="m19ed5235e5" d="M 0 0 
L -3.5 0 
" style="stroke: #000000; stroke-width: 0.8"/>
      </defs>
      <g>
       <use xlink:href="#m19ed5235e5" x="59.884062" y="171.559166" style="stroke: #000000; stroke-width: 0.8"/>
      </g>
     </g>
     <g id="text_8">
      <!-- 0.0 -->
      <g transform="translate(27.864062 178.01526)scale(0.18 -0.18)">
       <defs>
        <path id="Helvetica-2e" d="M 547 681 
L 1200 681 
L 1200 0 
L 547 0 
L 547 681 
z
" transform="scale(0.015625)"/>
       </defs>
       <use xlink:href="#Helvetica-30"/>
       <use xlink:href="#Helvetica-2e" x="55.615234"/>
       <use xlink:href="#Helvetica-30" x="83.398438"/>
      </g>
     </g>
    </g>
    <g id="ytick_2">
     <g id="line2d_15">
      <path d="M 59.884062 101.661174 
L 617.884063 101.661174 
" clip-path="url(#p917ded95e4)" style="fill: none; stroke: #b0b0b0; stroke-width: 0.8; stroke-linecap: square"/>
     </g>
     <g id="line2d_16">
      <g>
       <use xlink:href="#m19ed5235e5" x="59.884062" y="101.661174" style="stroke: #000000; stroke-width: 0.8"/>
      </g>
     </g>
     <g id="text_9">
      <!-- 0.1 -->
      <g transform="translate(27.864062 108.117268)scale(0.18 -0.18)">
       <use xlink:href="#Helvetica-30"/>
       <use xlink:href="#Helvetica-2e" x="55.615234"/>
       <use xlink:href="#Helvetica-31" x="83.398438"/>
      </g>
     </g>
    </g>
    <g id="text_10">
     <!-- MSE Ratio -->
     <g transform="translate(20.112187 156.136046)rotate(-90)scale(0.18 -0.18)">
      <defs>
       <path id="Helvetica-4d" d="M 472 4591 
L 1363 4591 
L 2681 709 
L 3991 4591 
L 4872 4591 
L 4872 0 
L 4281 0 
L 4281 2709 
Q 4281 2850 4287 3175 
Q 4294 3500 4294 3872 
L 2984 0 
L 2369 0 
L 1050 3872 
L 1050 3731 
Q 1050 3563 1058 3217 
Q 1066 2872 1066 2709 
L 1066 0 
L 472 0 
L 472 4591 
z
" transform="scale(0.015625)"/>
       <path id="Helvetica-53" d="M 894 1481 
Q 916 1091 1078 847 
Q 1388 391 2169 391 
Q 2519 391 2806 491 
Q 3363 684 3363 1184 
Q 3363 1559 3128 1719 
Q 2891 1875 2384 1991 
L 1763 2131 
Q 1153 2269 900 2434 
Q 463 2722 463 3294 
Q 463 3913 891 4309 
Q 1319 4706 2103 4706 
Q 2825 4706 3329 4357 
Q 3834 4009 3834 3244 
L 3250 3244 
Q 3203 3613 3050 3809 
Q 2766 4169 2084 4169 
Q 1534 4169 1293 3937 
Q 1053 3706 1053 3400 
Q 1053 3063 1334 2906 
Q 1519 2806 2169 2656 
L 2813 2509 
Q 3278 2403 3531 2219 
Q 3969 1897 3969 1284 
Q 3969 522 3414 194 
Q 2859 -134 2125 -134 
Q 1269 -134 784 303 
Q 300 738 309 1481 
L 894 1481 
z
M 2150 4716 
L 2150 4716 
z
" transform="scale(0.015625)"/>
       <path id="Helvetica-45" d="M 547 4591 
L 3894 4591 
L 3894 4028 
L 1153 4028 
L 1153 2634 
L 3688 2634 
L 3688 2103 
L 1153 2103 
L 1153 547 
L 3941 547 
L 3941 0 
L 547 0 
L 547 4591 
z
M 2244 4591 
L 2244 4591 
z
" transform="scale(0.015625)"/>
       <path id="Helvetica-20" transform="scale(0.015625)"/>
       <path id="Helvetica-52" d="M 2622 2488 
Q 3059 2488 3314 2663 
Q 3569 2838 3569 3294 
Q 3569 3784 3213 3963 
Q 3022 4056 2703 4056 
L 1184 4056 
L 1184 2488 
L 2622 2488 
z
M 563 4591 
L 2688 4591 
Q 3213 4591 3553 4438 
Q 4200 4144 4200 3353 
Q 4200 2941 4029 2678 
Q 3859 2416 3553 2256 
Q 3822 2147 3958 1969 
Q 4094 1791 4109 1391 
L 4131 775 
Q 4141 513 4175 384 
Q 4231 166 4375 103 
L 4375 0 
L 3613 0 
Q 3581 59 3562 153 
Q 3544 247 3531 516 
L 3494 1281 
Q 3472 1731 3159 1884 
Q 2981 1969 2600 1969 
L 1184 1969 
L 1184 0 
L 563 0 
L 563 4591 
z
" transform="scale(0.015625)"/>
       <path id="Helvetica-61" d="M 844 891 
Q 844 647 1022 506 
Q 1200 366 1444 366 
Q 1741 366 2019 503 
Q 2488 731 2488 1250 
L 2488 1703 
Q 2384 1638 2221 1594 
Q 2059 1550 1903 1531 
L 1563 1488 
Q 1256 1447 1103 1359 
Q 844 1213 844 891 
z
M 2206 2028 
Q 2400 2053 2466 2191 
Q 2503 2266 2503 2406 
Q 2503 2694 2298 2823 
Q 2094 2953 1713 2953 
Q 1272 2953 1088 2716 
Q 984 2584 953 2325 
L 428 2325 
Q 444 2944 830 3186 
Q 1216 3428 1725 3428 
Q 2316 3428 2684 3203 
Q 3050 2978 3050 2503 
L 3050 575 
Q 3050 488 3086 434 
Q 3122 381 3238 381 
Q 3275 381 3322 386 
Q 3369 391 3422 400 
L 3422 -16 
Q 3291 -53 3222 -62 
Q 3153 -72 3034 -72 
Q 2744 -72 2613 134 
Q 2544 244 2516 444 
Q 2344 219 2022 53 
Q 1700 -113 1313 -113 
Q 847 -113 551 170 
Q 256 453 256 878 
Q 256 1344 547 1600 
Q 838 1856 1309 1916 
L 2206 2028 
z
M 1741 3428 
L 1741 3428 
z
" transform="scale(0.015625)"/>
       <path id="Helvetica-74" d="M 525 4281 
L 1094 4281 
L 1094 3347 
L 1628 3347 
L 1628 2888 
L 1094 2888 
L 1094 703 
Q 1094 528 1213 469 
Q 1278 434 1431 434 
Q 1472 434 1519 436 
Q 1566 438 1628 444 
L 1628 0 
Q 1531 -28 1426 -40 
Q 1322 -53 1200 -53 
Q 806 -53 665 148 
Q 525 350 525 672 
L 525 2888 
L 72 2888 
L 72 3347 
L 525 3347 
L 525 4281 
z
" transform="scale(0.015625)"/>
       <path id="Helvetica-69" d="M 413 3331 
L 984 3331 
L 984 0 
L 413 0 
L 413 3331 
z
M 413 4591 
L 984 4591 
L 984 3953 
L 413 3953 
L 413 4591 
z
" transform="scale(0.015625)"/>
       <path id="Helvetica-6f" d="M 1741 363 
Q 2300 363 2508 786 
Q 2716 1209 2716 1728 
Q 2716 2197 2566 2491 
Q 2328 2953 1747 2953 
Q 1231 2953 997 2559 
Q 763 2166 763 1609 
Q 763 1075 997 719 
Q 1231 363 1741 363 
z
M 1763 3444 
Q 2409 3444 2856 3012 
Q 3303 2581 3303 1744 
Q 3303 934 2909 406 
Q 2516 -122 1688 -122 
Q 997 -122 590 345 
Q 184 813 184 1600 
Q 184 2444 612 2944 
Q 1041 3444 1763 3444 
z
M 1744 3428 
L 1744 3428 
z
" transform="scale(0.015625)"/>
      </defs>
      <use xlink:href="#Helvetica-4d"/>
      <use xlink:href="#Helvetica-53" x="83.300781"/>
      <use xlink:href="#Helvetica-45" x="150"/>
      <use xlink:href="#Helvetica-20" x="216.699219"/>
      <use xlink:href="#Helvetica-52" x="244.482422"/>
      <use xlink:href="#Helvetica-61" x="316.699219"/>
      <use xlink:href="#Helvetica-74" x="372.314453"/>
      <use xlink:href="#Helvetica-69" x="400.097656"/>
      <use xlink:href="#Helvetica-6f" x="422.314453"/>
     </g>
    </g>
   </g>
   <g id="line2d_17">
    <path d="M 85.247699 153.267865 
L 86.118861 155.38685 
L 87.092513 157.184962 
L 88.168655 158.710446 
L 89.398531 160.057399 
L 90.782142 161.232136 
L 92.370732 162.280287 
L 94.215547 163.224638 
L 96.419075 164.094319 
L 99.083807 164.896661 
L 102.363477 165.639952 
L 106.41182 166.320343 
L 111.536305 166.947892 
L 118.198135 167.528314 
L 126.961003 168.056513 
L 138.798563 168.534317 
L 155.196913 168.959999 
L 178.718297 169.332866 
L 213.769772 169.648972 
L 268.601757 169.901628 
L 359.817582 170.07695 
L 524.467271 170.143938 
L 592.520426 170.135082 
L 592.520426 170.135082 
" clip-path="url(#p917ded95e4)" style="fill: none; stroke: #1f77b4; stroke-width: 1.5; stroke-linecap: square"/>
   </g>
   <g id="line2d_18">
    <path d="M 85.247699 136.322433 
L 86.118861 140.244614 
L 87.092513 143.607301 
L 88.11741 146.363172 
L 89.244797 148.757499 
L 90.474673 150.837137 
L 91.807039 152.64614 
L 93.241895 154.223838 
L 94.830485 155.645886 
L 96.624055 156.952995 
L 98.673848 158.165386 
L 101.031111 159.291668 
L 103.747088 160.334589 
L 106.924269 161.308736 
L 110.665142 162.216947 
L 115.174689 163.074221 
L 120.606642 163.872294 
L 127.268472 164.617894 
L 135.518892 165.309294 
L 145.921596 165.94891 
L 159.245256 166.535334 
L 176.617259 167.066581 
L 199.779929 167.540446 
L 231.397999 167.951834 
L 275.82728 168.293417 
L 340.54952 168.552871 
L 439.093358 168.707435 
L 592.520426 168.715343 
L 592.520426 168.715343 
" clip-path="url(#p917ded95e4)" style="fill: none; stroke: #ff7f0e; stroke-width: 1.5; stroke-linecap: square"/>
   </g>
   <g id="line2d_19">
    <path d="M 85.247699 105.920762 
L 86.170106 113.033743 
L 87.143758 118.868126 
L 88.168655 123.732416 
L 89.296042 128.019232 
L 90.474673 131.646562 
L 91.755794 134.869843 
L 93.08816 137.634867 
L 94.523016 140.112304 
L 96.060361 142.331568 
L 97.751441 144.377801 
L 99.545011 146.202568 
L 101.54356 147.915163 
L 103.747088 149.502971 
L 106.155596 150.96244 
L 108.871573 152.343881 
L 111.895019 153.630494 
L 115.328423 154.848347 
L 119.274276 156.007604 
L 123.835068 157.108946 
L 129.113287 158.148267 
L 135.262668 159.127318 
L 142.539436 160.054298 
L 151.199815 160.926043 
L 161.602519 161.741901 
L 174.208751 162.499782 
L 189.684694 163.199215 
L 208.901511 163.836603 
L 233.140323 164.408761 
L 264.1947 164.909196 
L 304.678128 165.328477 
L 358.690195 165.653638 
L 432.534018 165.862873 
L 536.766034 165.921426 
L 592.520426 165.888823 
L 592.520426 165.888823 
" clip-path="url(#p917ded95e4)" style="fill: none; stroke: #2ca02c; stroke-width: 1.5; stroke-linecap: square"/>
   </g>
   <g id="line2d_20">
    <path d="M 85.247699 56.102098 
L 86.221351 67.489552 
L 87.246248 77.009337 
L 88.373634 85.417288 
L 89.552266 92.544378 
L 90.782142 98.655999 
L 92.063263 103.949262 
L 93.446874 108.736541 
L 94.88173 112.921139 
L 96.419075 116.724704 
L 98.007665 120.078649 
L 99.698745 123.14295 
L 101.492315 125.941282 
L 103.388374 128.496991 
L 105.438168 130.88807 
L 107.641696 133.113406 
L 109.998959 135.176601 
L 112.561202 137.120575 
L 115.328423 138.939573 
L 118.351869 140.659971 
L 121.682784 142.296971 
L 125.372413 143.858154 
L 129.472001 145.346142 
L 134.032792 146.760626 
L 139.157277 148.112327 
L 144.947944 149.403866 
L 151.507284 150.633041 
L 158.989032 151.802616 
L 167.546921 152.909702 
L 177.437176 153.958629 
L 188.916022 154.945742 
L 202.290926 155.866859 
L 218.074339 156.72431 
L 236.778708 157.511031 
L 259.172705 158.223469 
L 286.281228 158.855677 
L 319.385399 159.397306 
L 360.381275 159.837025 
L 411.8311 160.157215 
L 477.424503 160.333327 
L 562.747171 160.329503 
L 592.520426 160.287135 
L 592.520426 160.287135 
" clip-path="url(#p917ded95e4)" style="fill: none; stroke: #d62728; stroke-width: 1.5; stroke-linecap: square"/>
   </g>
   <g id="patch_3">
    <path d="M 59.884062 175.846154 
L 59.884062 50.4 
" style="fill: none; stroke: #000000; stroke-width: 0.8; stroke-linejoin: miter; stroke-linecap: square"/>
   </g>
   <g id="patch_4">
    <path d="M 617.884063 175.846154 
L 617.884063 50.4 
" style="fill: none; stroke: #000000; stroke-width: 0.8; stroke-linejoin: miter; stroke-linecap: square"/>
   </g>
   <g id="patch_5">
    <path d="M 59.884062 175.846154 
L 617.884063 175.846154 
" style="fill: none; stroke: #000000; stroke-width: 0.8; stroke-linejoin: miter; stroke-linecap: square"/>
   </g>
   <g id="patch_6">
    <path d="M 59.884062 50.4 
L 617.884063 50.4 
" style="fill: none; stroke: #000000; stroke-width: 0.8; stroke-linejoin: miter; stroke-linecap: square"/>
   </g>
   <g id="text_11">
    <!-- $e_0=1$ -->
    <g transform="translate(312.244062 44.4)scale(0.18 -0.18)">
     <defs>
      <path id="DejaVuSans-Oblique-65" d="M 3078 2063 
Q 3088 2113 3092 2166 
Q 3097 2219 3097 2272 
Q 3097 2653 2873 2875 
Q 2650 3097 2266 3097 
Q 1838 3097 1509 2826 
Q 1181 2556 1013 2059 
L 3078 2063 
z
M 3578 1613 
L 903 1613 
Q 884 1494 878 1425 
Q 872 1356 872 1306 
Q 872 872 1139 634 
Q 1406 397 1894 397 
Q 2269 397 2603 481 
Q 2938 566 3225 728 
L 3116 159 
Q 2806 34 2476 -28 
Q 2147 -91 1806 -91 
Q 1078 -91 686 257 
Q 294 606 294 1247 
Q 294 1794 489 2264 
Q 684 2734 1063 3103 
Q 1306 3334 1642 3459 
Q 1978 3584 2356 3584 
Q 2950 3584 3301 3228 
Q 3653 2872 3653 2272 
Q 3653 2128 3634 1964 
Q 3616 1800 3578 1613 
z
" transform="scale(0.015625)"/>
      <path id="DejaVuSans-30" d="M 2034 4250 
Q 1547 4250 1301 3770 
Q 1056 3291 1056 2328 
Q 1056 1369 1301 889 
Q 1547 409 2034 409 
Q 2525 409 2770 889 
Q 3016 1369 3016 2328 
Q 3016 3291 2770 3770 
Q 2525 4250 2034 4250 
z
M 2034 4750 
Q 2819 4750 3233 4129 
Q 3647 3509 3647 2328 
Q 3647 1150 3233 529 
Q 2819 -91 2034 -91 
Q 1250 -91 836 529 
Q 422 1150 422 2328 
Q 422 3509 836 4129 
Q 1250 4750 2034 4750 
z
" transform="scale(0.015625)"/>
      <path id="DejaVuSans-3d" d="M 678 2906 
L 4684 2906 
L 4684 2381 
L 678 2381 
L 678 2906 
z
M 678 1631 
L 4684 1631 
L 4684 1100 
L 678 1100 
L 678 1631 
z
" transform="scale(0.015625)"/>
      <path id="DejaVuSans-31" d="M 794 531 
L 1825 531 
L 1825 4091 
L 703 3866 
L 703 4441 
L 1819 4666 
L 2450 4666 
L 2450 531 
L 3481 531 
L 3481 0 
L 794 0 
L 794 531 
z
" transform="scale(0.015625)"/>
     </defs>
     <use xlink:href="#DejaVuSans-Oblique-65" transform="translate(0 0.09375)"/>
     <use xlink:href="#DejaVuSans-30" transform="translate(61.523438 -16.3125)scale(0.7)"/>
     <use xlink:href="#DejaVuSans-3d" transform="translate(128.276367 0.09375)"/>
     <use xlink:href="#DejaVuSans-31" transform="translate(231.547852 0.09375)"/>
    </g>
   </g>
  </g>
  <g id="axes_2">
   <g id="patch_7">
    <path d="M 59.884062 376.56 
L 617.884063 376.56 
L 617.884063 251.113846 
L 59.884062 251.113846 
z
" style="fill: #ffffff"/>
   </g>
   <g id="matplotlib.axis_3">
    <g id="xtick_7">
     <g id="line2d_21">
      <path d="M 61.231016 376.56 
L 61.231016 251.113846 
" clip-path="url(#pc8f6b2c274)" style="fill: none; stroke: #b0b0b0; stroke-width: 0.8; stroke-linecap: square"/>
     </g>
     <g id="line2d_22">
      <g>
       <use xlink:href="#m881238c8a3" x="61.231016" y="376.56" style="stroke: #000000; stroke-width: 0.8"/>
      </g>
     </g>
     <g id="text_12">
      <!-- 0 -->
      <g transform="translate(56.226172 396.472187)scale(0.18 -0.18)">
       <use xlink:href="#Helvetica-30"/>
      </g>
     </g>
    </g>
    <g id="xtick_8">
     <g id="line2d_23">
      <path d="M 167.499525 376.56 
L 167.499525 251.113846 
" clip-path="url(#pc8f6b2c274)" style="fill: none; stroke: #b0b0b0; stroke-width: 0.8; stroke-linecap: square"/>
     </g>
     <g id="line2d_24">
      <g>
       <use xlink:href="#m881238c8a3" x="167.499525" y="376.56" style="stroke: #000000; stroke-width: 0.8"/>
      </g>
     </g>
     <g id="text_13">
      <!-- 2 -->
      <g transform="translate(162.494681 396.472187)scale(0.18 -0.18)">
       <use xlink:href="#Helvetica-32"/>
      </g>
     </g>
    </g>
    <g id="xtick_9">
     <g id="line2d_25">
      <path d="M 273.768034 376.56 
L 273.768034 251.113846 
" clip-path="url(#pc8f6b2c274)" style="fill: none; stroke: #b0b0b0; stroke-width: 0.8; stroke-linecap: square"/>
     </g>
     <g id="line2d_26">
      <g>
       <use xlink:href="#m881238c8a3" x="273.768034" y="376.56" style="stroke: #000000; stroke-width: 0.8"/>
      </g>
     </g>
     <g id="text_14">
      <!-- 4 -->
      <g transform="translate(268.76319 396.472187)scale(0.18 -0.18)">
       <use xlink:href="#Helvetica-34"/>
      </g>
     </g>
    </g>
    <g id="xtick_10">
     <g id="line2d_27">
      <path d="M 380.036543 376.56 
L 380.036543 251.113846 
" clip-path="url(#pc8f6b2c274)" style="fill: none; stroke: #b0b0b0; stroke-width: 0.8; stroke-linecap: square"/>
     </g>
     <g id="line2d_28">
      <g>
       <use xlink:href="#m881238c8a3" x="380.036543" y="376.56" style="stroke: #000000; stroke-width: 0.8"/>
      </g>
     </g>
     <g id="text_15">
      <!-- 6 -->
      <g transform="translate(375.031699 396.472187)scale(0.18 -0.18)">
       <use xlink:href="#Helvetica-36"/>
      </g>
     </g>
    </g>
    <g id="xtick_11">
     <g id="line2d_29">
      <path d="M 486.305051 376.56 
L 486.305051 251.113846 
" clip-path="url(#pc8f6b2c274)" style="fill: none; stroke: #b0b0b0; stroke-width: 0.8; stroke-linecap: square"/>
     </g>
     <g id="line2d_30">
      <g>
       <use xlink:href="#m881238c8a3" x="486.305051" y="376.56" style="stroke: #000000; stroke-width: 0.8"/>
      </g>
     </g>
     <g id="text_16">
      <!-- 8 -->
      <g transform="translate(481.300208 396.472187)scale(0.18 -0.18)">
       <use xlink:href="#Helvetica-38"/>
      </g>
     </g>
    </g>
    <g id="xtick_12">
     <g id="line2d_31">
      <path d="M 592.57356 376.56 
L 592.57356 251.113846 
" clip-path="url(#pc8f6b2c274)" style="fill: none; stroke: #b0b0b0; stroke-width: 0.8; stroke-linecap: square"/>
     </g>
     <g id="line2d_32">
      <g>
       <use xlink:href="#m881238c8a3" x="592.57356" y="376.56" style="stroke: #000000; stroke-width: 0.8"/>
      </g>
     </g>
     <g id="text_17">
      <!-- 10 -->
      <g transform="translate(582.563873 396.472187)scale(0.18 -0.18)">
       <use xlink:href="#Helvetica-31"/>
       <use xlink:href="#Helvetica-30" x="55.615234"/>
      </g>
     </g>
    </g>
    <g id="text_18">
     <!-- $\sigma^2$ -->
     <g transform="translate(328.444062 417.212187)scale(0.18 -0.18)">
      <use xlink:href="#DejaVuSans-Oblique-3c3" transform="translate(0 0.765625)"/>
      <use xlink:href="#DejaVuSans-32" transform="translate(67.851615 39.046875)scale(0.7)"/>
     </g>
    </g>
   </g>
   <g id="matplotlib.axis_4">
    <g id="ytick_3">
     <g id="line2d_33">
      <path d="M 59.884062 373.057533 
L 617.884063 373.057533 
" clip-path="url(#pc8f6b2c274)" style="fill: none; stroke: #b0b0b0; stroke-width: 0.8; stroke-linecap: square"/>
     </g>
     <g id="line2d_34">
      <g>
       <use xlink:href="#m19ed5235e5" x="59.884062" y="373.057533" style="stroke: #000000; stroke-width: 0.8"/>
      </g>
     </g>
     <g id="text_19">
      <!-- 0.0 -->
      <g transform="translate(27.864062 379.513627)scale(0.18 -0.18)">
       <use xlink:href="#Helvetica-30"/>
       <use xlink:href="#Helvetica-2e" x="55.615234"/>
       <use xlink:href="#Helvetica-30" x="83.398438"/>
      </g>
     </g>
    </g>
    <g id="ytick_4">
     <g id="line2d_35">
      <path d="M 59.884062 326.481019 
L 617.884063 326.481019 
" clip-path="url(#pc8f6b2c274)" style="fill: none; stroke: #b0b0b0; stroke-width: 0.8; stroke-linecap: square"/>
     </g>
     <g id="line2d_36">
      <g>
       <use xlink:href="#m19ed5235e5" x="59.884062" y="326.481019" style="stroke: #000000; stroke-width: 0.8"/>
      </g>
     </g>
     <g id="text_20">
      <!-- 0.1 -->
      <g transform="translate(27.864062 332.937113)scale(0.18 -0.18)">
       <use xlink:href="#Helvetica-30"/>
       <use xlink:href="#Helvetica-2e" x="55.615234"/>
       <use xlink:href="#Helvetica-31" x="83.398438"/>
      </g>
     </g>
    </g>
    <g id="ytick_5">
     <g id="line2d_37">
      <path d="M 59.884062 279.904506 
L 617.884063 279.904506 
" clip-path="url(#pc8f6b2c274)" style="fill: none; stroke: #b0b0b0; stroke-width: 0.8; stroke-linecap: square"/>
     </g>
     <g id="line2d_38">
      <g>
       <use xlink:href="#m19ed5235e5" x="59.884062" y="279.904506" style="stroke: #000000; stroke-width: 0.8"/>
      </g>
     </g>
     <g id="text_21">
      <!-- 0.2 -->
      <g transform="translate(27.864062 286.360599)scale(0.18 -0.18)">
       <use xlink:href="#Helvetica-30"/>
       <use xlink:href="#Helvetica-2e" x="55.615234"/>
       <use xlink:href="#Helvetica-32" x="83.398438"/>
      </g>
     </g>
    </g>
    <g id="text_22">
     <!-- MSE Ratio -->
     <g transform="translate(20.112187 356.849892)rotate(-90)scale(0.18 -0.18)">
      <use xlink:href="#Helvetica-4d"/>
      <use xlink:href="#Helvetica-53" x="83.300781"/>
      <use xlink:href="#Helvetica-45" x="150"/>
      <use xlink:href="#Helvetica-20" x="216.699219"/>
      <use xlink:href="#Helvetica-52" x="244.482422"/>
      <use xlink:href="#Helvetica-61" x="316.699219"/>
      <use xlink:href="#Helvetica-74" x="372.314453"/>
      <use xlink:href="#Helvetica-69" x="400.097656"/>
      <use xlink:href="#Helvetica-6f" x="422.314453"/>
     </g>
    </g>
   </g>
   <g id="line2d_39">
    <path d="M 85.247699 350.446873 
L 87.63874 352.036404 
L 90.295453 353.535881 
L 93.270971 354.956916 
L 96.618429 356.304028 
L 100.390961 357.577733 
L 104.694836 358.790427 
L 109.636322 359.944832 
L 115.321687 361.038485 
L 121.910334 362.074512 
L 129.667936 363.062654 
L 138.807027 363.996204 
L 149.69955 364.879014 
L 162.82371 365.712577 
L 178.817121 366.497525 
L 198.476795 367.231766 
L 223.024821 367.917486 
L 254.161494 368.555102 
L 294.277856 369.143748 
L 346.987036 369.683624 
L 417.868132 370.175004 
L 515.688294 370.617415 
L 592.520426 370.857902 
L 592.520426 370.857902 
" clip-path="url(#pc8f6b2c274)" style="fill: none; stroke: #1f77b4; stroke-width: 1.5; stroke-linecap: square"/>
   </g>
   <g id="line2d_40">
    <path d="M 85.247699 331.196775 
L 87.426203 333.672668 
L 89.76411 335.992412 
L 92.26142 338.157065 
L 94.971267 340.20869 
L 97.893651 342.139771 
L 101.081707 343.976483 
L 104.535433 345.709099 
L 108.3611 347.376544 
L 112.558706 348.961424 
L 117.23452 350.485887 
L 122.441677 351.94592 
L 128.286445 353.349111 
L 134.875093 354.696601 
L 142.313888 355.985822 
L 150.762235 357.219708 
L 160.432669 358.402351 
L 171.537728 359.531651 
L 184.396218 360.610761 
L 199.380077 361.639738 
L 216.967516 362.618925 
L 237.796143 363.54945 
L 262.662974 364.430763 
L 292.630694 365.262793 
L 329.080793 366.044665 
L 373.979238 366.777244 
L 430.035876 367.460652 
L 501.02324 368.094222 
L 592.467292 368.677736 
L 592.520426 368.67802 
L 592.520426 368.67802 
" clip-path="url(#pc8f6b2c274)" style="fill: none; stroke: #ff7f0e; stroke-width: 1.5; stroke-linecap: square"/>
   </g>
   <g id="line2d_41">
    <path d="M 85.247699 300.145296 
L 87.479338 303.911915 
L 89.817245 307.419985 
L 92.26142 310.687062 
L 94.811865 313.730247 
L 97.521712 316.619562 
L 100.390961 319.353776 
L 103.419614 321.934585 
L 106.660803 324.404134 
L 110.11453 326.755681 
L 113.833928 329.016686 
L 117.818997 331.177068 
L 122.122871 333.255229 
L 126.798686 335.262229 
L 131.84644 337.184698 
L 137.372402 339.047994 
L 143.429707 340.850846 
L 150.071489 342.590574 
L 157.350882 344.263909 
L 165.374155 345.877592 
L 174.300709 347.442367 
L 184.236815 348.953838 
L 195.341874 350.413262 
L 207.77529 351.818341 
L 221.749599 353.169739 
L 237.583606 354.472865 
L 255.542984 355.723246 
L 276.052807 356.92366 
L 299.644416 358.07614 
L 326.849154 359.176947 
L 358.464035 360.227933 
L 395.445476 361.228799 
L 439.015565 362.179254 
L 490.768329 363.07921 
L 552.829138 363.928862 
L 592.520426 364.376499 
L 592.520426 364.376499 
" clip-path="url(#pc8f6b2c274)" style="fill: none; stroke: #2ca02c; stroke-width: 1.5; stroke-linecap: square"/>
   </g>
   <g id="line2d_42">
    <path d="M 85.247699 256.815944 
L 87.691875 261.85152 
L 90.242319 266.606827 
L 92.899032 271.09605 
L 95.662013 275.333259 
L 98.531262 279.332305 
L 101.559915 283.170986 
L 104.694836 286.78675 
L 107.98916 290.247289 
L 111.442886 293.552155 
L 115.056016 296.70283 
L 118.881682 299.742605 
L 122.919885 302.664884 
L 127.170626 305.465853 
L 131.687037 308.17437 
L 136.46912 310.782487 
L 141.570009 313.310269 
L 147.042837 315.770904 
L 152.887605 318.151597 
L 159.157447 320.461961 
L 165.905497 322.707578 
L 173.131756 324.875878 
L 180.942491 326.98544 
L 189.390838 329.034805 
L 198.583064 331.032597 
L 208.572303 332.972634 
L 219.464826 334.858056 
L 231.366899 336.688975 
L 244.384791 338.463525 
L 258.73104 340.190748 
L 274.511913 341.862886 
L 291.939949 343.482413 
L 311.280817 345.052398 
L 332.80019 346.571764 
L 356.816873 348.040002 
L 383.702806 349.456403 
L 413.936197 350.821907 
L 448.048388 352.135494 
L 486.730126 353.397903 
L 530.831557 354.609676 
L 581.309098 355.769061 
L 592.520426 355.999604 
L 592.520426 355.999604 
" clip-path="url(#pc8f6b2c274)" style="fill: none; stroke: #d62728; stroke-width: 1.5; stroke-linecap: square"/>
   </g>
   <g id="patch_8">
    <path d="M 59.884062 376.56 
L 59.884062 251.113846 
" style="fill: none; stroke: #000000; stroke-width: 0.8; stroke-linejoin: miter; stroke-linecap: square"/>
   </g>
   <g id="patch_9">
    <path d="M 617.884063 376.56 
L 617.884063 251.113846 
" style="fill: none; stroke: #000000; stroke-width: 0.8; stroke-linejoin: miter; stroke-linecap: square"/>
   </g>
   <g id="patch_10">
    <path d="M 59.884062 376.56 
L 617.884063 376.56 
" style="fill: none; stroke: #000000; stroke-width: 0.8; stroke-linejoin: miter; stroke-linecap: square"/>
   </g>
   <g id="patch_11">
    <path d="M 59.884062 251.113846 
L 617.884063 251.113846 
" style="fill: none; stroke: #000000; stroke-width: 0.8; stroke-linejoin: miter; stroke-linecap: square"/>
   </g>
   <g id="text_23">
    <!-- $e_0 = \sqrt{10}$ -->
    <g transform="translate(298.834062 245.113846)scale(0.18 -0.18)">
     <defs>
      <path id="STIXSizeOneSym-Regular-221a" d="M 6970 9933 
L 3373 -1888 
L 3104 -1888 
L 1626 2918 
Q 1555 3149 1465 3251 
Q 1376 3354 1229 3354 
Q 1011 3354 794 3181 
L 717 3309 
L 1766 4115 
L 1926 4115 
L 3379 -602 
L 3405 -602 
L 6605 9933 
L 6970 9933 
z
" transform="scale(0.015625)"/>
     </defs>
     <use xlink:href="#DejaVuSans-Oblique-65" transform="translate(0 0.296875)"/>
     <use xlink:href="#DejaVuSans-30" transform="translate(61.523438 -16.109375)scale(0.7)"/>
     <use xlink:href="#DejaVuSans-3d" transform="translate(128.276367 0.296875)"/>
     <use xlink:href="#STIXSizeOneSym-Regular-221a" transform="translate(231.547852 15.984375)scale(0.578716)"/>
     <use xlink:href="#DejaVuSans-31" transform="translate(305.221725 0.53125)"/>
     <use xlink:href="#DejaVuSans-30" transform="translate(368.844772 0.53125)"/>
     <path d="M 292.721725 99.5 
L 292.721725 105.75 
L 444.967819 105.75 
L 444.967819 99.5 
L 292.721725 99.5 
z
"/>
    </g>
   </g>
  </g>
  <g id="text_24">
   <!-- MSE Improvement in Privacy-Aware Gradient Descent -->
   <g transform="translate(88.699687 21.9375)scale(0.2 -0.2)">
    <defs>
     <path id="Helvetica-49" d="M 628 4591 
L 1256 4591 
L 1256 0 
L 628 0 
L 628 4591 
z
" transform="scale(0.015625)"/>
     <path id="Helvetica-6d" d="M 413 3347 
L 969 3347 
L 969 2872 
Q 1169 3119 1331 3231 
Q 1609 3422 1963 3422 
Q 2363 3422 2606 3225 
Q 2744 3113 2856 2894 
Q 3044 3163 3297 3292 
Q 3550 3422 3866 3422 
Q 4541 3422 4784 2934 
Q 4916 2672 4916 2228 
L 4916 0 
L 4331 0 
L 4331 2325 
Q 4331 2659 4164 2784 
Q 3997 2909 3756 2909 
Q 3425 2909 3186 2687 
Q 2947 2466 2947 1947 
L 2947 0 
L 2375 0 
L 2375 2184 
Q 2375 2525 2294 2681 
Q 2166 2916 1816 2916 
Q 1497 2916 1236 2669 
Q 975 2422 975 1775 
L 975 0 
L 413 0 
L 413 3347 
z
" transform="scale(0.015625)"/>
     <path id="Helvetica-70" d="M 1825 378 
Q 2219 378 2480 708 
Q 2741 1038 2741 1694 
Q 2741 2094 2625 2381 
Q 2406 2934 1825 2934 
Q 1241 2934 1025 2350 
Q 909 2038 909 1556 
Q 909 1169 1025 897 
Q 1244 378 1825 378 
z
M 369 3331 
L 916 3331 
L 916 2888 
Q 1084 3116 1284 3241 
Q 1569 3428 1953 3428 
Q 2522 3428 2919 2992 
Q 3316 2556 3316 1747 
Q 3316 653 2744 184 
Q 2381 -113 1900 -113 
Q 1522 -113 1266 53 
Q 1116 147 931 375 
L 931 -1334 
L 369 -1334 
L 369 3331 
z
" transform="scale(0.015625)"/>
     <path id="Helvetica-72" d="M 428 3347 
L 963 3347 
L 963 2769 
Q 1028 2938 1284 3180 
Q 1541 3422 1875 3422 
Q 1891 3422 1928 3419 
Q 1966 3416 2056 3406 
L 2056 2813 
Q 2006 2822 1964 2825 
Q 1922 2828 1872 2828 
Q 1447 2828 1219 2554 
Q 991 2281 991 1925 
L 991 0 
L 428 0 
L 428 3347 
z
" transform="scale(0.015625)"/>
     <path id="Helvetica-76" d="M 688 3347 
L 1581 622 
L 2516 3347 
L 3131 3347 
L 1869 0 
L 1269 0 
L 34 3347 
L 688 3347 
z
" transform="scale(0.015625)"/>
     <path id="Helvetica-65" d="M 1806 3422 
Q 2163 3422 2497 3255 
Q 2831 3088 3006 2822 
Q 3175 2569 3231 2231 
Q 3281 2000 3281 1494 
L 828 1494 
Q 844 984 1069 676 
Q 1294 369 1766 369 
Q 2206 369 2469 659 
Q 2619 828 2681 1050 
L 3234 1050 
Q 3213 866 3089 639 
Q 2966 413 2813 269 
Q 2556 19 2178 -69 
Q 1975 -119 1719 -119 
Q 1094 -119 659 336 
Q 225 791 225 1609 
Q 225 2416 662 2919 
Q 1100 3422 1806 3422 
z
M 2703 1941 
Q 2669 2306 2544 2525 
Q 2313 2931 1772 2931 
Q 1384 2931 1121 2651 
Q 859 2372 844 1941 
L 2703 1941 
z
M 1753 3428 
L 1753 3428 
z
" transform="scale(0.015625)"/>
     <path id="Helvetica-6e" d="M 413 3347 
L 947 3347 
L 947 2872 
Q 1184 3166 1450 3294 
Q 1716 3422 2041 3422 
Q 2753 3422 3003 2925 
Q 3141 2653 3141 2147 
L 3141 0 
L 2569 0 
L 2569 2109 
Q 2569 2416 2478 2603 
Q 2328 2916 1934 2916 
Q 1734 2916 1606 2875 
Q 1375 2806 1200 2600 
Q 1059 2434 1017 2257 
Q 975 2081 975 1753 
L 975 0 
L 413 0 
L 413 3347 
z
M 1734 3428 
L 1734 3428 
z
" transform="scale(0.015625)"/>
     <path id="Helvetica-50" d="M 547 4591 
L 2613 4591 
Q 3225 4591 3600 4245 
Q 3975 3900 3975 3275 
Q 3975 2738 3640 2339 
Q 3306 1941 2613 1941 
L 1169 1941 
L 1169 0 
L 547 0 
L 547 4591 
z
M 3347 3272 
Q 3347 3778 2972 3959 
Q 2766 4056 2406 4056 
L 1169 4056 
L 1169 2466 
L 2406 2466 
Q 2825 2466 3086 2644 
Q 3347 2822 3347 3272 
z
" transform="scale(0.015625)"/>
     <path id="Helvetica-63" d="M 1703 3444 
Q 2269 3444 2623 3169 
Q 2978 2894 3050 2222 
L 2503 2222 
Q 2453 2531 2275 2736 
Q 2097 2941 1703 2941 
Q 1166 2941 934 2416 
Q 784 2075 784 1575 
Q 784 1072 996 728 
Q 1209 384 1666 384 
Q 2016 384 2220 598 
Q 2425 813 2503 1184 
L 3050 1184 
Q 2956 519 2581 211 
Q 2206 -97 1622 -97 
Q 966 -97 575 383 
Q 184 863 184 1581 
Q 184 2463 612 2953 
Q 1041 3444 1703 3444 
z
M 1616 3428 
L 1616 3428 
z
" transform="scale(0.015625)"/>
     <path id="Helvetica-79" d="M 2503 3347 
L 3125 3347 
Q 3006 3025 2597 1878 
Q 2291 1016 2084 472 
Q 1597 -809 1397 -1090 
Q 1197 -1372 709 -1372 
Q 591 -1372 527 -1362 
Q 463 -1353 369 -1328 
L 369 -816 
Q 516 -856 581 -865 
Q 647 -875 697 -875 
Q 853 -875 926 -823 
Q 1000 -772 1050 -697 
Q 1066 -672 1162 -440 
Q 1259 -209 1303 -97 
L 66 3347 
L 703 3347 
L 1600 622 
L 2503 3347 
z
M 1597 3428 
L 1597 3428 
z
" transform="scale(0.015625)"/>
     <path id="Helvetica-2d" d="M 266 2072 
L 1834 2072 
L 1834 1494 
L 266 1494 
L 266 2072 
z
" transform="scale(0.015625)"/>
     <path id="Helvetica-41" d="M 2844 1881 
L 2147 3909 
L 1406 1881 
L 2844 1881 
z
M 1822 4591 
L 2525 4591 
L 4191 0 
L 3509 0 
L 3044 1375 
L 1228 1375 
L 731 0 
L 94 0 
L 1822 4591 
z
" transform="scale(0.015625)"/>
     <path id="Helvetica-77" d="M 672 3347 
L 1316 709 
L 1969 3347 
L 2600 3347 
L 3256 725 
L 3941 3347 
L 4503 3347 
L 3531 0 
L 2947 0 
L 2266 2591 
L 1606 0 
L 1022 0 
L 56 3347 
L 672 3347 
z
" transform="scale(0.015625)"/>
     <path id="Helvetica-47" d="M 2472 4709 
Q 3119 4709 3591 4459 
Q 4275 4100 4428 3200 
L 3813 3200 
Q 3700 3703 3347 3933 
Q 2994 4163 2456 4163 
Q 1819 4163 1383 3684 
Q 947 3206 947 2259 
Q 947 1441 1306 927 
Q 1666 413 2478 413 
Q 3100 413 3508 773 
Q 3916 1134 3925 1941 
L 2488 1941 
L 2488 2456 
L 4503 2456 
L 4503 0 
L 4103 0 
L 3953 591 
Q 3638 244 3394 109 
Q 2984 -122 2353 -122 
Q 1538 -122 950 406 
Q 309 1069 309 2225 
Q 309 3378 934 4059 
Q 1528 4709 2472 4709 
z
M 2369 4716 
L 2369 4716 
z
" transform="scale(0.015625)"/>
     <path id="Helvetica-64" d="M 769 1634 
Q 769 1097 997 734 
Q 1225 372 1728 372 
Q 2119 372 2370 708 
Q 2622 1044 2622 1672 
Q 2622 2306 2362 2611 
Q 2103 2916 1722 2916 
Q 1297 2916 1033 2591 
Q 769 2266 769 1634 
z
M 1616 3406 
Q 2000 3406 2259 3244 
Q 2409 3150 2600 2916 
L 2600 4606 
L 3141 4606 
L 3141 0 
L 2634 0 
L 2634 466 
Q 2438 156 2169 18 
Q 1900 -119 1553 -119 
Q 994 -119 584 351 
Q 175 822 175 1603 
Q 175 2334 548 2870 
Q 922 3406 1616 3406 
z
" transform="scale(0.015625)"/>
     <path id="Helvetica-44" d="M 2250 531 
Q 2566 531 2769 597 
Q 3131 719 3363 1066 
Q 3547 1344 3628 1778 
Q 3675 2038 3675 2259 
Q 3675 3113 3336 3584 
Q 2997 4056 2244 4056 
L 1141 4056 
L 1141 531 
L 2250 531 
z
M 516 4591 
L 2375 4591 
Q 3322 4591 3844 3919 
Q 4309 3313 4309 2366 
Q 4309 1634 4034 1044 
Q 3550 0 2369 0 
L 516 0 
L 516 4591 
z
" transform="scale(0.015625)"/>
     <path id="Helvetica-73" d="M 747 1050 
Q 772 769 888 619 
Q 1100 347 1625 347 
Q 1938 347 2175 483 
Q 2413 619 2413 903 
Q 2413 1119 2222 1231 
Q 2100 1300 1741 1391 
L 1294 1503 
Q 866 1609 663 1741 
Q 300 1969 300 2372 
Q 300 2847 642 3140 
Q 984 3434 1563 3434 
Q 2319 3434 2653 2991 
Q 2863 2709 2856 2384 
L 2325 2384 
Q 2309 2575 2191 2731 
Q 1997 2953 1519 2953 
Q 1200 2953 1036 2831 
Q 872 2709 872 2509 
Q 872 2291 1088 2159 
Q 1213 2081 1456 2022 
L 1828 1931 
Q 2434 1784 2641 1647 
Q 2969 1431 2969 969 
Q 2969 522 2630 197 
Q 2291 -128 1597 -128 
Q 850 -128 539 211 
Q 228 550 206 1050 
L 747 1050 
z
M 1578 3428 
L 1578 3428 
z
" transform="scale(0.015625)"/>
    </defs>
    <use xlink:href="#Helvetica-4d"/>
    <use xlink:href="#Helvetica-53" x="83.300781"/>
    <use xlink:href="#Helvetica-45" x="150"/>
    <use xlink:href="#Helvetica-20" x="216.699219"/>
    <use xlink:href="#Helvetica-49" x="244.482422"/>
    <use xlink:href="#Helvetica-6d" x="272.265625"/>
    <use xlink:href="#Helvetica-70" x="355.566406"/>
    <use xlink:href="#Helvetica-72" x="411.181641"/>
    <use xlink:href="#Helvetica-6f" x="444.482422"/>
    <use xlink:href="#Helvetica-76" x="500.097656"/>
    <use xlink:href="#Helvetica-65" x="550.097656"/>
    <use xlink:href="#Helvetica-6d" x="605.712891"/>
    <use xlink:href="#Helvetica-65" x="689.013672"/>
    <use xlink:href="#Helvetica-6e" x="744.628906"/>
    <use xlink:href="#Helvetica-74" x="800.244141"/>
    <use xlink:href="#Helvetica-20" x="828.027344"/>
    <use xlink:href="#Helvetica-69" x="855.810547"/>
    <use xlink:href="#Helvetica-6e" x="878.027344"/>
    <use xlink:href="#Helvetica-20" x="933.642578"/>
    <use xlink:href="#Helvetica-50" x="961.425781"/>
    <use xlink:href="#Helvetica-72" x="1028.125"/>
    <use xlink:href="#Helvetica-69" x="1061.425781"/>
    <use xlink:href="#Helvetica-76" x="1083.642578"/>
    <use xlink:href="#Helvetica-61" x="1133.642578"/>
    <use xlink:href="#Helvetica-63" x="1189.257812"/>
    <use xlink:href="#Helvetica-79" x="1239.257812"/>
    <use xlink:href="#Helvetica-2d" x="1289.257812"/>
    <use xlink:href="#Helvetica-41" x="1322.558594"/>
    <use xlink:href="#Helvetica-77" x="1389.257812"/>
    <use xlink:href="#Helvetica-61" x="1461.474609"/>
    <use xlink:href="#Helvetica-72" x="1517.089844"/>
    <use xlink:href="#Helvetica-65" x="1550.390625"/>
    <use xlink:href="#Helvetica-20" x="1606.005859"/>
    <use xlink:href="#Helvetica-47" x="1633.789062"/>
    <use xlink:href="#Helvetica-72" x="1711.572266"/>
    <use xlink:href="#Helvetica-61" x="1744.873047"/>
    <use xlink:href="#Helvetica-64" x="1800.488281"/>
    <use xlink:href="#Helvetica-69" x="1856.103516"/>
    <use xlink:href="#Helvetica-65" x="1878.320312"/>
    <use xlink:href="#Helvetica-6e" x="1933.935547"/>
    <use xlink:href="#Helvetica-74" x="1989.550781"/>
    <use xlink:href="#Helvetica-20" x="2017.333984"/>
    <use xlink:href="#Helvetica-44" x="2045.117188"/>
    <use xlink:href="#Helvetica-65" x="2117.333984"/>
    <use xlink:href="#Helvetica-73" x="2172.949219"/>
    <use xlink:href="#Helvetica-63" x="2222.949219"/>
    <use xlink:href="#Helvetica-65" x="2272.949219"/>
    <use xlink:href="#Helvetica-6e" x="2328.564453"/>
    <use xlink:href="#Helvetica-74" x="2384.179688"/>
   </g>
  </g>
  <g id="legend_1">
   <g id="patch_12">
    <path d="M 53.084062 461.8525 
L 576.601562 461.8525 
Q 579.801563 461.8525 579.801563 458.6525 
L 579.801563 437.44 
Q 579.801563 434.24 576.601562 434.24 
L 53.084062 434.24 
Q 49.884062 434.24 49.884062 437.44 
L 49.884062 458.6525 
Q 49.884062 461.8525 53.084062 461.8525 
z
" style="fill: #ffffff; opacity: 0.8; stroke: #cccccc; stroke-linejoin: miter"/>
   </g>
   <g id="line2d_43">
    <path d="M 56.284062 446.5175 
L 72.284062 446.5175 
L 88.284062 446.5175 
" style="fill: none; stroke: #1f77b4; stroke-width: 1.5; stroke-linecap: square"/>
   </g>
   <g id="text_25">
    <!-- MI=1/128 -->
    <g transform="translate(101.084062 452.1175)scale(0.16 -0.16)">
     <defs>
      <path id="Helvetica-3d" d="M 3547 2569 
L 3547 2044 
L 288 2044 
L 288 2569 
L 3547 2569 
z
M 3547 1228 
L 3547 694 
L 288 694 
L 288 1228 
L 3547 1228 
z
" transform="scale(0.015625)"/>
      <path id="Helvetica-2f" d="M 1456 4591 
L 1931 4591 
L 475 0 
L 0 0 
L 1456 4591 
z
" transform="scale(0.015625)"/>
     </defs>
     <use xlink:href="#Helvetica-4d"/>
     <use xlink:href="#Helvetica-49" x="83.300781"/>
     <use xlink:href="#Helvetica-3d" x="111.083984"/>
     <use xlink:href="#Helvetica-31" x="169.482422"/>
     <use xlink:href="#Helvetica-2f" x="225.097656"/>
     <use xlink:href="#Helvetica-31" x="252.880859"/>
     <use xlink:href="#Helvetica-32" x="308.496094"/>
     <use xlink:href="#Helvetica-38" x="364.111328"/>
    </g>
   </g>
   <g id="line2d_44">
    <path d="M 200.236562 446.5175 
L 216.236562 446.5175 
L 232.236562 446.5175 
" style="fill: none; stroke: #ff7f0e; stroke-width: 1.5; stroke-linecap: square"/>
   </g>
   <g id="text_26">
    <!-- MI=1/64 -->
    <g transform="translate(245.036563 452.1175)scale(0.16 -0.16)">
     <use xlink:href="#Helvetica-4d"/>
     <use xlink:href="#Helvetica-49" x="83.300781"/>
     <use xlink:href="#Helvetica-3d" x="111.083984"/>
     <use xlink:href="#Helvetica-31" x="169.482422"/>
     <use xlink:href="#Helvetica-2f" x="225.097656"/>
     <use xlink:href="#Helvetica-36" x="252.880859"/>
     <use xlink:href="#Helvetica-34" x="308.496094"/>
    </g>
   </g>
   <g id="line2d_45">
    <path d="M 335.291562 446.5175 
L 351.291562 446.5175 
L 367.291562 446.5175 
" style="fill: none; stroke: #2ca02c; stroke-width: 1.5; stroke-linecap: square"/>
   </g>
   <g id="text_27">
    <!-- MI=1/32 -->
    <g transform="translate(380.091563 452.1175)scale(0.16 -0.16)">
     <defs>
      <path id="Helvetica-33" d="M 1663 -122 
Q 869 -122 511 314 
Q 153 750 153 1375 
L 741 1375 
Q 778 941 903 744 
Q 1122 391 1694 391 
Q 2138 391 2406 628 
Q 2675 866 2675 1241 
Q 2675 1703 2392 1887 
Q 2109 2072 1606 2072 
Q 1550 2072 1492 2070 
Q 1434 2069 1375 2066 
L 1375 2563 
Q 1463 2553 1522 2550 
Q 1581 2547 1650 2547 
Q 1966 2547 2169 2647 
Q 2525 2822 2525 3272 
Q 2525 3606 2287 3787 
Q 2050 3969 1734 3969 
Q 1172 3969 956 3594 
Q 838 3388 822 3006 
L 266 3006 
Q 266 3506 466 3856 
Q 809 4481 1675 4481 
Q 2359 4481 2734 4176 
Q 3109 3872 3109 3294 
Q 3109 2881 2888 2625 
Q 2750 2466 2531 2375 
Q 2884 2278 3082 2001 
Q 3281 1725 3281 1325 
Q 3281 684 2859 281 
Q 2438 -122 1663 -122 
z
" transform="scale(0.015625)"/>
     </defs>
     <use xlink:href="#Helvetica-4d"/>
     <use xlink:href="#Helvetica-49" x="83.300781"/>
     <use xlink:href="#Helvetica-3d" x="111.083984"/>
     <use xlink:href="#Helvetica-31" x="169.482422"/>
     <use xlink:href="#Helvetica-2f" x="225.097656"/>
     <use xlink:href="#Helvetica-33" x="252.880859"/>
     <use xlink:href="#Helvetica-32" x="308.496094"/>
    </g>
   </g>
   <g id="line2d_46">
    <path d="M 470.346563 446.5175 
L 486.346563 446.5175 
L 502.346563 446.5175 
" style="fill: none; stroke: #d62728; stroke-width: 1.5; stroke-linecap: square"/>
   </g>
   <g id="text_28">
    <!-- MI=1/16 -->
    <g transform="translate(515.146562 452.1175)scale(0.16 -0.16)">
     <use xlink:href="#Helvetica-4d"/>
     <use xlink:href="#Helvetica-49" x="83.300781"/>
     <use xlink:href="#Helvetica-3d" x="111.083984"/>
     <use xlink:href="#Helvetica-31" x="169.482422"/>
     <use xlink:href="#Helvetica-2f" x="225.097656"/>
     <use xlink:href="#Helvetica-31" x="252.880859"/>
     <use xlink:href="#Helvetica-36" x="308.496094"/>
    </g>
   </g>
  </g>
 </g>
 <defs>
  <clipPath id="p917ded95e4">
   <rect x="59.884062" y="50.4" width="558" height="125.446154"/>
  </clipPath>
  <clipPath id="pc8f6b2c274">
   <rect x="59.884062" y="251.113846" width="558" height="125.446154"/>
  </clipPath>
 </defs>
</svg>
